<svg xmlns="http://www.w3.org/2000/svg" xmlns:xlink="http://www.w3.org/1999/xlink" viewBox="0 0 430 430" width="430" height="430" preserveAspectRatio="xMidYMid meet" style="width: 100%; height: 100%; transform: translate3d(0px, 0px, 0px); content-visibility: visible;"><defs><clipPath id="__lottie_element_4471"><rect width="430" height="430" x="0" y="0"/></clipPath><clipPath id="__lottie_element_4473"><path d="M0,0 L430,0 L430,430 L0,430z"/></clipPath><clipPath id="__lottie_element_4478"><path d="M0,0 L430,0 L430,430 L0,430z"/></clipPath><clipPath id="__lottie_element_4482"><path d="M0,0 L430,0 L430,430 L0,430z"/></clipPath><g id="__lottie_element_4485"><g clip-path="url(#__lottie_element_4486)" transform="matrix(1,0,0,1,0,10)" opacity="1" style="display: block;"><g transform="matrix(0.7071067690849304,-0.7071067690849304,0.7071067690849304,0.7071067690849304,211.443603515625,204.69808959960938)" opacity="1" style="display: none;"><g opacity="1" transform="matrix(1,0,0,1,0,0)"><path class="primary" fill="rgb(58,130,246)" fill-opacity="1" d=" M-37.61641311645508,20.992767333984375 C-37.61641311645508,20.992767333984375 112.92920684814453,20.502798080444336 112.92920684814453,20.502798080444336 C112.92920684814453,20.502798080444336 112.92920684814453,20.510448455810547 112.92920684814453,20.510448455810547 C112.92920684814453,20.510448455810547 144.34620666503906,20.510448455810547 144.34620666503906,20.510448455810547 C144.34620666503906,20.510448455810547 144.34620666503906,20.505558013916016 144.34620666503906,20.505558013916016 C144.34620666503906,20.505558013916016 175.76319885253906,20.505558013916016 175.76319885253906,20.505558013916016 C175.76319885253906,20.505558013916016 175.76319885253906,20.510448455810547 175.76319885253906,20.510448455810547 C175.76319885253906,20.510448455810547 207.17919921875,20.510448455810547 207.17919921875,20.510448455810547 C207.17919921875,20.510448455810547 207.17919921875,20.502798080444336 207.17919921875,20.502798080444336 C207.17919921875,20.502798080444336 220.15020751953125,20.50278663635254 220.15020751953125,20.50278663635254 C226.2852020263672,20.50278663635254 231.13223266601562,16.529624938964844 231.13223266601562,10.394625663757324 C231.13223266601562,10.394625663757324 231.25697326660156,6.323958396911621 231.25697326660156,6.323958396911621 C231.25697326660156,0.1889585703611374 226.2839813232422,-4.784041404724121 220.1499786376953,-4.784041404724121 C220.1499786376953,-4.784041404724121 -37.616641998291016,-4.294059753417969 -37.616641998291016,-4.294059753417969"/></g></g><g transform="matrix(0.7071067690849304,-0.7071067690849304,0.7071067690849304,0.7071067690849304,211.443603515625,204.69808959960938)" opacity="1" style="display: block;"><g opacity="1" transform="matrix(1,0,0,1,0,0)"><path class="primary" fill="rgb(58,130,246)" fill-opacity="1" d=" M-36.78499984741211,61.933998107910156 C-36.78499984741211,61.933998107910156 111.38600158691406,61.63100051879883 111.38600158691406,61.63100051879883 C111.38600158691406,61.63100051879883 111.38600158691406,90.66699981689453 111.38600158691406,90.66699981689453 C111.38600158691406,90.66699981689453 142.80299377441406,90.66699981689453 142.80299377441406,90.66699981689453 C142.80299377441406,90.66699981689453 142.80299377441406,72.625 142.80299377441406,72.625 C142.80299377441406,72.625 174.22000122070312,72.625 174.22000122070312,72.625 C174.22000122070312,72.625 174.22000122070312,90.66699981689453 174.22000122070312,90.66699981689453 C174.22000122070312,90.66699981689453 205.63600158691406,90.66600036621094 205.63600158691406,90.66600036621094 C205.63600158691406,90.66600036621094 205.63600158691406,61.63100051879883 205.63600158691406,61.63100051879883 C205.63600158691406,61.63100051879883 218.60699462890625,61.558998107910156 218.60699462890625,61.558998107910156 C224.74200439453125,61.558998107910156 229.71400451660156,56.58599853515625 229.71400451660156,50.45100021362305 C229.71400451660156,50.45100021362305 231.12899780273438,-0.17499999701976776 231.12899780273438,-0.17499999701976776 C231.12899780273438,-6.309999942779541 226.15499877929688,-11.282999992370605 220.02099609375,-11.282999992370605 C220.02099609375,-11.282999992370605 -35.37099838256836,-10.907999992370605 -35.37099838256836,-10.907999992370605"/></g></g><g transform="matrix(0.7071067690849304,-0.7071067690849304,-0.7071067690849304,-0.7071067690849304,221.54391479492188,216.44540405273438)" opacity="1" style="display: none;"><g opacity="1" transform="matrix(1,0,0,1,0,0)"><path class="primary" fill="rgb(58,130,246)" fill-opacity="1" d=" M-37.520538330078125,21.196802139282227 C-37.520538330078125,21.196802139282227 113.2651138305664,20.699630737304688 113.2651138305664,20.699630737304688 C113.2651138305664,20.699630737304688 113.2651138305664,21.949546813964844 113.2651138305664,21.949546813964844 C113.2651138305664,21.949546813964844 144.3404541015625,21.96470832824707 144.3404541015625,21.96470832824707 C144.3404541015625,21.96470832824707 144.3404541015625,21.187963485717773 144.3404541015625,21.187963485717773 C144.3404541015625,21.187963485717773 176.09910583496094,21.172760009765625 176.09910583496094,21.172760009765625 C176.09910583496094,21.172760009765625 176.09910583496094,21.949546813964844 176.09910583496094,21.949546813964844 C176.09910583496094,21.949546813964844 207.1735076904297,21.96470832824707 207.1735076904297,21.96470832824707 C207.1735076904297,21.96470832824707 207.1735076904297,20.714834213256836 207.1735076904297,20.714834213256836 C207.1735076904297,20.714834213256836 220.1444549560547,20.711742401123047 220.1444549560547,20.711742401123047 C226.2794647216797,20.711742401123047 231.13182067871094,16.69579315185547 231.13182067871094,10.560792922973633 C231.13182067871094,10.560792922973633 231.25146484375,6.045835971832275 231.25146484375,6.045835971832275 C231.25146484375,-0.0891638845205307 226.27850341796875,-5.062163829803467 220.1444549560547,-5.062163829803467 C220.1444549560547,-5.062163829803467 -37.520538330078125,-4.577103137969971 -37.520538330078125,-4.577103137969971"/></g></g></g></g><clipPath id="__lottie_element_4486"><path d="M0,0 L430,0 L430,430 L0,430z"/></clipPath><clipPath id="__lottie_element_4496"><path d="M0,0 L430,0 L430,430 L0,430z"/></clipPath><clipPath id="__lottie_element_4500"><path d="M0,0 L430,0 L430,430 L0,430z"/></clipPath><g id="__lottie_element_4503"><g clip-path="url(#__lottie_element_4504)" transform="matrix(1,0,0,1,2.75,9.5)" opacity="1" style="display: block;"><g transform="matrix(0.7071067690849304,-0.7071067690849304,0.7071067690849304,0.7071067690849304,211.443603515625,204.69808959960938)" opacity="1" style="display: none;"><path class="primary" fill="rgb(58,130,246)" fill-opacity="1" d=" M-75.75227355957031,-5.209022045135498 C-75.75227355957031,-5.209022045135498 -75.13188934326172,0.5978286266326904 -75.21988677978516,7.147085189819336 C-75.30388641357422,13.337654113769531 -75.70728302001953,20.11785888671875 -75.70728302001953,20.11785888671875 C-75.70728302001953,20.11785888671875 -47.863006591796875,19.946971893310547 -47.863006591796875,19.946971893310547 C-40.940006256103516,19.946971893310547 -35.32700729370117,14.333971977233887 -35.32700729370117,7.4109721183776855 C-35.32700729370117,7.4109721183776855 -35.32700729370117,7.4109721183776855 -35.32700729370117,7.4109721183776855 C-35.32700729370117,7.4109721183776855 -35.37099838256836,7.509034633636475 -35.37099838256836,7.509034633636475 C-35.37099838256836,7.509034633636475 -35.37099838256836,7.509034633636475 -35.37099838256836,7.509034633636475 C-35.37099838256836,0.5860347151756287 -40.98400115966797,-5.026965141296387 -47.90700149536133,-5.026965141296387 C-47.90700149536133,-5.026965141296387 -75.75227355957031,-5.209022045135498 -75.75227355957031,-5.209022045135498z"/><g opacity="1" transform="matrix(1,0,0,1,0,0)"/></g><g transform="matrix(0.7071067690849304,-0.7071067690849304,0.7071067690849304,0.7071067690849304,211.443603515625,204.69808959960938)" opacity="1" style="display: block;"><path class="primary" fill="rgb(58,130,246)" fill-opacity="1" d=" M-83.70600128173828,-30.30699920654297 C-83.70600128173828,-30.30699920654297 -74.43399810791016,-19.19300079345703 -74.51300048828125,7.677999973297119 C-74.59700012207031,36.138999938964844 -83.70600128173828,44.20000076293945 -83.70600128173828,44.20000076293945 C-83.70600128173828,44.20000076293945 -47.90700149536133,44.736000061035156 -47.90700149536133,44.736000061035156 C-40.98400115966797,44.736000061035156 -35.37099838256836,39.12200164794922 -35.37099838256836,32.19900131225586 C-35.37099838256836,32.19900131225586 -35.37099838256836,32.19900131225586 -35.37099838256836,32.19900131225586 C-35.37099838256836,32.19900131225586 -35.37099838256836,-17.236000061035156 -35.37099838256836,-17.236000061035156 C-35.37099838256836,-17.236000061035156 -35.37099838256836,-17.236000061035156 -35.37099838256836,-17.236000061035156 C-35.37099838256836,-24.159000396728516 -40.98400115966797,-29.77199935913086 -47.90700149536133,-29.77199935913086 C-47.90700149536133,-29.77199935913086 -83.70600128173828,-30.30699920654297 -83.70600128173828,-30.30699920654297z"/><g opacity="1" transform="matrix(1,0,0,1,0,0)"/></g><g transform="matrix(0.7071067690849304,-0.7071067690849304,-0.7071067690849304,-0.7071067690849304,221.54391479492188,216.44540405273438)" opacity="1" style="display: none;"><path class="primary" fill="rgb(58,130,246)" fill-opacity="1" d=" M-76.0926513671875,-6.283088207244873 C-76.0926513671875,-6.283088207244873 -75.10202026367188,-0.24911846220493317 -75.18963623046875,7.169805526733398 C-75.27363586425781,14.313435554504395 -76.0495834350586,21.148452758789062 -76.0495834350586,21.148452758789062 C-76.0495834350586,21.148452758789062 -47.864891052246094,21.007816314697266 -47.864891052246094,21.007816314697266 C-40.941890716552734,21.007816314697266 -35.328887939453125,15.394774436950684 -35.328887939453125,8.471774101257324 C-35.328887939453125,8.471774101257324 -35.328887939453125,8.471774101257324 -35.328887939453125,8.471774101257324 C-35.328887939453125,8.471774101257324 -35.37099838256836,6.450072765350342 -35.37099838256836,6.450072765350342 C-35.37099838256836,6.450072765350342 -35.37099838256836,6.450072765350342 -35.37099838256836,6.450072765350342 C-35.37099838256836,-0.4729272425174713 -40.98400115966797,-6.0859270095825195 -47.90700149536133,-6.0859270095825195 C-47.90700149536133,-6.0859270095825195 -76.0926513671875,-6.283088207244873 -76.0926513671875,-6.283088207244873z"/><g opacity="1" transform="matrix(1,0,0,1,0,0)"/></g></g></g><clipPath id="__lottie_element_4504"><path d="M0,0 L430,0 L430,430 L0,430z"/></clipPath><clipPath id="__lottie_element_4508"><path d="M0,0 L430,0 L430,430 L0,430z"/></clipPath><clipPath id="__lottie_element_4512"><path d="M0,0 L430,0 L430,430 L0,430z"/></clipPath><g id="__lottie_element_4515"><g clip-path="url(#__lottie_element_4516)" transform="matrix(1,0,0,1,2.75,9.5)" opacity="1" style="display: block;"><g transform="matrix(0.7071067690849304,-0.7071067690849304,0.7071067690849304,0.7071067690849304,211.443603515625,204.69808959960938)" opacity="1" style="display: none;"><g opacity="1" transform="matrix(1,0,0,1,0,0)"><path class="primary" fill="rgb(58,130,246)" fill-opacity="1" d=" M-68.97400665283203,-4.856077671051025 C-68.97400665283203,-4.739373207092285 -102.98300170898438,-4.645938396453857 -144.93600463867188,-4.645938396453857 C-186.88900756835938,-4.645938396453857 -220.8990020751953,-4.739373207092285 -220.8990020751953,-4.856077671051025 C-220.8990020751953,-4.972781658172607 -186.88900756835938,-5.067216396331787 -144.93600463867188,-5.067216396331787 C-102.98300170898438,-5.067216396331787 -68.97400665283203,-4.972781658172607 -68.97400665283203,-4.856077671051025z"/></g></g><g transform="matrix(0.7071067690849304,-0.7071067690849304,0.7071067690849304,0.7071067690849304,211.443603515625,204.69808959960938)" opacity="1" style="display: block;"><g opacity="1" transform="matrix(1,0,0,1,0,0)"><path class="primary" fill="rgb(58,130,246)" fill-opacity="1" d=" M-69.00199890136719,7.142000198364258 C-69.00199890136719,-34.59199905395508 -103.01200103759766,-68.42500305175781 -144.96499633789062,-68.42500305175781 C-186.91799926757812,-68.42500305175781 -220.927001953125,-34.59199905395508 -220.927001953125,7.142000198364258 C-220.927001953125,48.875999450683594 -186.91799926757812,82.70800018310547 -144.96499633789062,82.70800018310547 C-103.01200103759766,82.70800018310547 -69.00199890136719,48.875999450683594 -69.00199890136719,7.142000198364258z"/></g></g><g transform="matrix(0.7071067690849304,-0.7071067690849304,-0.7071067690849304,-0.7071067690849304,221.54391479492188,216.44540405273438)" opacity="1" style="display: none;"><g opacity="1" transform="matrix(1,0,0,1,0,0)"><path class="primary" fill="rgb(58,130,246)" fill-opacity="1" d=" M-68.8785400390625,19.58367156982422 C-68.8785400390625,17.896543502807617 -102.88758087158203,16.527694702148438 -144.840576171875,16.527694702148438 C-186.7935791015625,16.527694702148438 -220.8035430908203,17.896543502807617 -220.8035430908203,19.58367156982422 C-220.8035430908203,21.27079963684082 -186.7935791015625,22.638648986816406 -144.840576171875,22.638648986816406 C-102.88758087158203,22.638648986816406 -68.8785400390625,21.27079963684082 -68.8785400390625,19.58367156982422z"/></g></g></g></g><clipPath id="__lottie_element_4516"><path d="M0,0 L430,0 L430,430 L0,430z"/></clipPath><filter id="__lottie_element_4522" filterUnits="objectBoundingBox" x="0%" y="0%" width="100%" height="100%"><feComponentTransfer in="SourceGraphic"><feFuncA type="table" tableValues="1.0 0.0"/></feComponentTransfer></filter><mask id="__lottie_element_4515_2" mask-type="alpha"><g filter="url(#__lottie_element_4522)"><rect width="430" height="430" x="0" y="0" fill="#ffffff" opacity="0"/><use xmlns:ns1="http://www.w3.org/1999/xlink" ns1:href="#__lottie_element_4515"/></g></mask><filter id="__lottie_element_4523" filterUnits="objectBoundingBox" x="0%" y="0%" width="100%" height="100%"><feComponentTransfer in="SourceGraphic"><feFuncA type="table" tableValues="1.0 0.0"/></feComponentTransfer></filter><mask id="__lottie_element_4503_2" mask-type="alpha"><g filter="url(#__lottie_element_4523)"><rect width="430" height="430" x="0" y="0" fill="#ffffff" opacity="0"/><use xmlns:ns2="http://www.w3.org/1999/xlink" ns2:href="#__lottie_element_4503"/></g></mask><filter id="__lottie_element_4524" filterUnits="objectBoundingBox" x="0%" y="0%" width="100%" height="100%"><feComponentTransfer in="SourceGraphic"><feFuncA type="table" tableValues="1.0 0.0"/></feComponentTransfer></filter><mask id="__lottie_element_4485_2" mask-type="alpha"><g filter="url(#__lottie_element_4524)"><rect width="430" height="430" x="0" y="0" fill="#ffffff" opacity="0"/><use xmlns:ns3="http://www.w3.org/1999/xlink" ns3:href="#__lottie_element_4485"/></g></mask></defs><g clip-path="url(#__lottie_element_4471)"><g clip-path="url(#__lottie_element_4473)" transform="matrix(1,0,0,1,0,0)" opacity="1" style="display: block;"><g clip-path="url(#__lottie_element_4478)" transform="matrix(1,0,0,1,0,0)" opacity="1" style="display: block;"><g transform="matrix(0.7071067690849304,-0.7071067690849304,0.7071067690849304,0.7071067690849304,211.443603515625,204.69808959960938)" opacity="1" style="display: none;"><g opacity="1" transform="matrix(1,0,0,1,0,0)"><path class="primary" fill="rgb(58,130,246)" fill-opacity="1" d=" M-61.300846099853516,21.340726852416992 C-61.300846099853516,21.340726852416992 112.9289779663086,20.497812271118164 112.9289779663086,20.497812271118164 C112.9289779663086,20.497812271118164 112.9289779663086,20.505464553833008 112.9289779663086,20.505464553833008 C112.9289779663086,20.505464553833008 144.34597778320312,20.505464553833008 144.34597778320312,20.505464553833008 C144.34597778320312,20.505464553833008 144.34597778320312,20.500574111938477 144.34597778320312,20.500574111938477 C144.34597778320312,20.500574111938477 175.7629852294922,20.500574111938477 175.7629852294922,20.500574111938477 C175.7629852294922,20.500574111938477 175.7629852294922,20.505464553833008 175.7629852294922,20.505464553833008 C175.7629852294922,20.505464553833008 207.17898559570312,20.505464553833008 207.17898559570312,20.505464553833008 C207.17898559570312,20.505464553833008 207.17898559570312,20.497812271118164 207.17898559570312,20.497812271118164 C207.17898559570312,20.497812271118164 220.14898681640625,20.497800827026367 220.14898681640625,20.497800827026367 C226.2839813232422,20.497800827026367 231.13099670410156,16.524641036987305 231.13099670410156,10.389640808105469 C231.13099670410156,10.389640808105469 231.25697326660156,6.323958396911621 231.25697326660156,6.323958396911621 C231.25697326660156,0.1889585703611374 226.28297424316406,-4.784041404724121 220.14898681640625,-4.784041404724121 C220.14898681640625,-4.784041404724121 -61.300846099853516,-3.9401166439056396 -61.300846099853516,-3.9401166439056396"/></g></g><g transform="matrix(0.7071067690849304,-0.7071067690849304,0.7071067690849304,0.7071067690849304,211.443603515625,204.69808959960938)" opacity="1" style="display: block;"><g opacity="1" transform="matrix(1,0,0,1,0,0)"><path class="primary" fill="rgb(58,130,246)" fill-opacity="1" d=" M-35.37099838256836,25.871999740600586 C-35.37099838256836,25.871999740600586 112.8010025024414,25.569000244140625 112.8010025024414,25.569000244140625 C112.8010025024414,25.569000244140625 112.8010025024414,54.604000091552734 112.8010025024414,54.604000091552734 C112.8010025024414,54.604000091552734 144.2169952392578,54.604000091552734 144.2169952392578,54.604000091552734 C144.2169952392578,54.604000091552734 144.2169952392578,36.5629997253418 144.2169952392578,36.5629997253418 C144.2169952392578,36.5629997253418 175.63400268554688,36.5629997253418 175.63400268554688,36.5629997253418 C175.63400268554688,36.5629997253418 175.63400268554688,54.604000091552734 175.63400268554688,54.604000091552734 C175.63400268554688,54.604000091552734 207.05099487304688,54.604000091552734 207.05099487304688,54.604000091552734 C207.05099487304688,54.604000091552734 207.05099487304688,25.569000244140625 207.05099487304688,25.569000244140625 C207.05099487304688,25.569000244140625 220.02099609375,25.496999740600586 220.02099609375,25.496999740600586 C226.156005859375,25.496999740600586 231.1280059814453,20.52400016784668 231.1280059814453,14.388999938964844 C231.1280059814453,14.388999938964844 231.1280059814453,-0.17499999701976776 231.1280059814453,-0.17499999701976776 C231.1280059814453,-6.309999942779541 226.156005859375,-11.282999992370605 220.02099609375,-11.282999992370605 C220.02099609375,-11.282999992370605 -35.37099838256836,-10.907999992370605 -35.37099838256836,-10.907999992370605"/></g></g><g transform="matrix(0.7071067690849304,-0.7071067690849304,-0.7071067690849304,-0.7071067690849304,221.54391479492188,216.44540405273438)" opacity="1" style="display: none;"><g opacity="1" transform="matrix(1,0,0,1,0,0)"><path class="primary" fill="rgb(58,130,246)" fill-opacity="1" d=" M-60.19117736816406,21.53464126586914 C-60.19117736816406,21.53464126586914 112.92350006103516,20.714834213256836 112.92350006103516,20.714834213256836 C112.92350006103516,20.714834213256836 112.92350006103516,21.96470832824707 112.92350006103516,21.96470832824707 C112.92350006103516,21.96470832824707 144.3404541015625,21.96470832824707 144.3404541015625,21.96470832824707 C144.3404541015625,21.96470832824707 144.3404541015625,21.187963485717773 144.3404541015625,21.187963485717773 C144.3404541015625,21.187963485717773 175.75746154785156,21.187963485717773 175.75746154785156,21.187963485717773 C175.75746154785156,21.187963485717773 175.75746154785156,21.96470832824707 175.75746154785156,21.96470832824707 C175.75746154785156,21.96470832824707 207.1735076904297,21.96470832824707 207.1735076904297,21.96470832824707 C207.1735076904297,21.96470832824707 207.1735076904297,20.714834213256836 207.1735076904297,20.714834213256836 C207.1735076904297,20.714834213256836 220.1435089111328,20.711742401123047 220.1435089111328,20.711742401123047 C226.27850341796875,20.711742401123047 231.13087463378906,16.69579315185547 231.13087463378906,10.560792922973633 C231.13087463378906,10.560792922973633 231.25146484375,6.045835971832275 231.25146484375,6.045835971832275 C231.25146484375,-0.0891638845205307 226.2775421142578,-5.062163829803467 220.1435089111328,-5.062163829803467 C220.1435089111328,-5.062163829803467 -60.19117736816406,-4.238306522369385 -60.19117736816406,-4.238306522369385"/></g></g></g><g mask="url(#__lottie_element_4485_2)" style="mix-blend-mode: multiply; display: block;"><g clip-path="url(#__lottie_element_4482)" transform="matrix(1,0,0,1,0,0)" opacity="0.5"><g transform="matrix(0.7071067690849304,-0.7071067690849304,0.7071067690849304,0.7071067690849304,211.443603515625,204.69808959960938)" opacity="1" style="display: none;"><g opacity="1" transform="matrix(1,0,0,1,0,0)"><path class="primary" fill="rgb(58,130,246)" fill-opacity="1" d=" M-61.300846099853516,21.340726852416992 C-61.300846099853516,21.340726852416992 112.9289779663086,20.497812271118164 112.9289779663086,20.497812271118164 C112.9289779663086,20.497812271118164 112.9289779663086,20.505464553833008 112.9289779663086,20.505464553833008 C112.9289779663086,20.505464553833008 144.34597778320312,20.505464553833008 144.34597778320312,20.505464553833008 C144.34597778320312,20.505464553833008 144.34597778320312,20.500574111938477 144.34597778320312,20.500574111938477 C144.34597778320312,20.500574111938477 175.7629852294922,20.500574111938477 175.7629852294922,20.500574111938477 C175.7629852294922,20.500574111938477 175.7629852294922,20.505464553833008 175.7629852294922,20.505464553833008 C175.7629852294922,20.505464553833008 207.17898559570312,20.505464553833008 207.17898559570312,20.505464553833008 C207.17898559570312,20.505464553833008 207.17898559570312,20.497812271118164 207.17898559570312,20.497812271118164 C207.17898559570312,20.497812271118164 220.14898681640625,20.497800827026367 220.14898681640625,20.497800827026367 C226.2839813232422,20.497800827026367 231.13099670410156,16.524641036987305 231.13099670410156,10.389640808105469 C231.13099670410156,10.389640808105469 231.25697326660156,6.323958396911621 231.25697326660156,6.323958396911621 C231.25697326660156,0.1889585703611374 226.28297424316406,-4.784041404724121 220.14898681640625,-4.784041404724121 C220.14898681640625,-4.784041404724121 -61.300846099853516,-3.9401166439056396 -61.300846099853516,-3.9401166439056396"/></g></g><g transform="matrix(0.7071067690849304,-0.7071067690849304,0.7071067690849304,0.7071067690849304,211.443603515625,204.69808959960938)" opacity="1" style="display: block;"><g opacity="1" transform="matrix(1,0,0,1,0,0)"><path class="primary" fill="rgb(58,130,246)" fill-opacity="1" d=" M-35.37099838256836,25.871999740600586 C-35.37099838256836,25.871999740600586 112.8010025024414,25.569000244140625 112.8010025024414,25.569000244140625 C112.8010025024414,25.569000244140625 112.8010025024414,54.604000091552734 112.8010025024414,54.604000091552734 C112.8010025024414,54.604000091552734 144.2169952392578,54.604000091552734 144.2169952392578,54.604000091552734 C144.2169952392578,54.604000091552734 144.2169952392578,36.5629997253418 144.2169952392578,36.5629997253418 C144.2169952392578,36.5629997253418 175.63400268554688,36.5629997253418 175.63400268554688,36.5629997253418 C175.63400268554688,36.5629997253418 175.63400268554688,54.604000091552734 175.63400268554688,54.604000091552734 C175.63400268554688,54.604000091552734 207.05099487304688,54.604000091552734 207.05099487304688,54.604000091552734 C207.05099487304688,54.604000091552734 207.05099487304688,25.569000244140625 207.05099487304688,25.569000244140625 C207.05099487304688,25.569000244140625 220.02099609375,25.496999740600586 220.02099609375,25.496999740600586 C226.156005859375,25.496999740600586 231.1280059814453,20.52400016784668 231.1280059814453,14.388999938964844 C231.1280059814453,14.388999938964844 231.1280059814453,-0.17499999701976776 231.1280059814453,-0.17499999701976776 C231.1280059814453,-6.309999942779541 226.156005859375,-11.282999992370605 220.02099609375,-11.282999992370605 C220.02099609375,-11.282999992370605 -35.37099838256836,-10.907999992370605 -35.37099838256836,-10.907999992370605"/></g></g><g transform="matrix(0.7071067690849304,-0.7071067690849304,-0.7071067690849304,-0.7071067690849304,221.54391479492188,216.44540405273438)" opacity="1" style="display: none;"><g opacity="1" transform="matrix(1,0,0,1,0,0)"><path class="primary" fill="rgb(58,130,246)" fill-opacity="1" d=" M-60.19117736816406,21.53464126586914 C-60.19117736816406,21.53464126586914 112.92350006103516,20.714834213256836 112.92350006103516,20.714834213256836 C112.92350006103516,20.714834213256836 112.92350006103516,21.96470832824707 112.92350006103516,21.96470832824707 C112.92350006103516,21.96470832824707 144.3404541015625,21.96470832824707 144.3404541015625,21.96470832824707 C144.3404541015625,21.96470832824707 144.3404541015625,21.187963485717773 144.3404541015625,21.187963485717773 C144.3404541015625,21.187963485717773 175.75746154785156,21.187963485717773 175.75746154785156,21.187963485717773 C175.75746154785156,21.187963485717773 175.75746154785156,21.96470832824707 175.75746154785156,21.96470832824707 C175.75746154785156,21.96470832824707 207.1735076904297,21.96470832824707 207.1735076904297,21.96470832824707 C207.1735076904297,21.96470832824707 207.1735076904297,20.714834213256836 207.1735076904297,20.714834213256836 C207.1735076904297,20.714834213256836 220.1435089111328,20.711742401123047 220.1435089111328,20.711742401123047 C226.27850341796875,20.711742401123047 231.13087463378906,16.69579315185547 231.13087463378906,10.560792922973633 C231.13087463378906,10.560792922973633 231.25146484375,6.045835971832275 231.25146484375,6.045835971832275 C231.25146484375,-0.0891638845205307 226.2775421142578,-5.062163829803467 220.1435089111328,-5.062163829803467 C220.1435089111328,-5.062163829803467 -60.19117736816406,-4.238306522369385 -60.19117736816406,-4.238306522369385"/></g></g></g></g><g transform="matrix(0.7071067690849304,-0.7071067690849304,0.7071067690849304,0.7071067690849304,211.443603515625,204.69808959960938)" opacity="1" style="display: none;"><g opacity="1" transform="matrix(1,0,0,1,0,0)"><path stroke-linecap="butt" stroke-linejoin="miter" fill-opacity="0" stroke-miterlimit="4" class="primary" stroke="rgb(58,130,246)" stroke-opacity="1" stroke-width="2" d="M0 0"/></g><path class="primary" fill="rgb(58,130,246)" fill-opacity="1" d=" M-68.8730239868164,20.139917373657227 C-68.8730239868164,20.256620407104492 -102.88201904296875,20.350055694580078 -144.83502197265625,20.350055694580078 C-186.78802490234375,20.350055694580078 -220.7980194091797,20.256620407104492 -220.7980194091797,20.139917373657227 C-220.7980194091797,20.023212432861328 -186.78802490234375,19.92877769470215 -144.83502197265625,19.92877769470215 C-102.88201904296875,19.92877769470215 -68.8730239868164,20.023212432861328 -68.8730239868164,20.139917373657227z M-99.5920181274414,20.139917373657227 C-99.5920181274414,20.070924758911133 -119.8480224609375,20.013687133789062 -144.83502197265625,20.013687133789062 C-169.822021484375,20.013687133789062 -190.0790252685547,20.070924758911133 -190.0790252685547,20.139917373657227 C-190.0790252685547,20.20890998840332 -169.822021484375,20.265146255493164 -144.83502197265625,20.265146255493164 C-119.8480224609375,20.265146255493164 -99.5920181274414,20.20890998840332 -99.5920181274414,20.139917373657227z"/><path class="primary" fill="rgb(58,130,246)" fill-opacity="0.5" d=" M-68.8730239868164,20.139917373657227 C-68.8730239868164,20.256620407104492 -102.88201904296875,20.350055694580078 -144.83502197265625,20.350055694580078 C-186.78802490234375,20.350055694580078 -220.7980194091797,20.256620407104492 -220.7980194091797,20.139917373657227 C-220.7980194091797,20.023212432861328 -186.78802490234375,19.92877769470215 -144.83502197265625,19.92877769470215 C-102.88201904296875,19.92877769470215 -68.8730239868164,20.023212432861328 -68.8730239868164,20.139917373657227z M-99.5920181274414,20.139917373657227 C-99.5920181274414,20.070924758911133 -119.8480224609375,20.013687133789062 -144.83502197265625,20.013687133789062 C-169.822021484375,20.013687133789062 -190.0790252685547,20.070924758911133 -190.0790252685547,20.139917373657227 C-190.0790252685547,20.20890998840332 -169.822021484375,20.265146255493164 -144.83502197265625,20.265146255493164 C-119.8480224609375,20.265146255493164 -99.5920181274414,20.20890998840332 -99.5920181274414,20.139917373657227z" style="mix-blend-mode: multiply;"/><g opacity="1" transform="matrix(1,0,0,1,0,0)"/></g><g transform="matrix(0.7071067690849304,-0.7071067690849304,0.7071067690849304,0.7071067690849304,211.443603515625,204.69808959960938)" opacity="1" style="display: block;"><g opacity="1" transform="matrix(1,0,0,1,0,0)"><path stroke-linecap="butt" stroke-linejoin="miter" fill-opacity="0" stroke-miterlimit="4" class="primary" stroke="rgb(58,130,246)" stroke-opacity="1" stroke-width="2" d="M0 0"/></g><g opacity="1" transform="matrix(1,0,0,1,0,0)"><path class="primary" fill="rgb(58,130,246)" fill-opacity="1" d=" M-69.00199890136719,7.142000198364258 C-69.00199890136719,-34.59199905395508 -103.01200103759766,-68.42500305175781 -144.96499633789062,-68.42500305175781 C-186.91799926757812,-68.42500305175781 -220.927001953125,-34.59199905395508 -220.927001953125,7.142000198364258 C-220.927001953125,48.875999450683594 -186.91799926757812,82.70800018310547 -144.96499633789062,82.70800018310547 C-103.01200103759766,82.70800018310547 -69.00199890136719,48.875999450683594 -69.00199890136719,7.142000198364258z M-99.72200012207031,7.142000198364258 C-99.72200012207031,31.999000549316406 -119.97799682617188,52.14799880981445 -144.96499633789062,52.14799880981445 C-169.95199584960938,52.14799880981445 -190.20799255371094,31.999000549316406 -190.20799255371094,7.142000198364258 C-190.20799255371094,-17.71500015258789 -169.95199584960938,-37.8650016784668 -144.96499633789062,-37.8650016784668 C-119.97799682617188,-37.8650016784668 -99.72200012207031,-17.71500015258789 -99.72200012207031,7.142000198364258z"/><path class="primary" fill="rgb(58,130,246)" fill-opacity="0.5" d=" M-69.00199890136719,7.142000198364258 C-69.00199890136719,-34.59199905395508 -103.01200103759766,-68.42500305175781 -144.96499633789062,-68.42500305175781 C-186.91799926757812,-68.42500305175781 -220.927001953125,-34.59199905395508 -220.927001953125,7.142000198364258 C-220.927001953125,48.875999450683594 -186.91799926757812,82.70800018310547 -144.96499633789062,82.70800018310547 C-103.01200103759766,82.70800018310547 -69.00199890136719,48.875999450683594 -69.00199890136719,7.142000198364258z M-99.72200012207031,7.142000198364258 C-99.72200012207031,31.999000549316406 -119.97799682617188,52.14799880981445 -144.96499633789062,52.14799880981445 C-169.95199584960938,52.14799880981445 -190.20799255371094,31.999000549316406 -190.20799255371094,7.142000198364258 C-190.20799255371094,-17.71500015258789 -169.95199584960938,-37.8650016784668 -144.96499633789062,-37.8650016784668 C-119.97799682617188,-37.8650016784668 -99.72200012207031,-17.71500015258789 -99.72200012207031,7.142000198364258z" style="mix-blend-mode: multiply;"/></g></g><g transform="matrix(0.7071067690849304,-0.7071067690849304,-0.7071067690849304,-0.7071067690849304,221.54391479492188,216.44540405273438)" opacity="1" style="display: none;"><g opacity="1" transform="matrix(1,0,0,1,0,0)"><path stroke-linecap="butt" stroke-linejoin="miter" fill-opacity="0" stroke-miterlimit="4" class="primary" stroke="rgb(58,130,246)" stroke-opacity="1" stroke-width="2" d="M0 0"/></g><g opacity="1" transform="matrix(1,0,0,1,0,0)"><path class="primary" fill="rgb(58,130,246)" fill-opacity="1" d=" M-68.97520446777344,-4.342620372772217 C-68.97520446777344,-6.029748916625977 -102.98424530029297,-7.398597717285156 -144.93724060058594,-7.398597717285156 C-186.89024353027344,-7.398597717285156 -220.90020751953125,-6.029748916625977 -220.90020751953125,-4.342620372772217 C-220.90020751953125,-2.6554923057556152 -186.89024353027344,-1.287643313407898 -144.93724060058594,-1.287643313407898 C-102.98424530029297,-1.287643313407898 -68.97520446777344,-2.6554923057556152 -68.97520446777344,-4.342620372772217z M-99.69424438476562,-4.342620372772217 C-99.69424438476562,-3.3372631072998047 -119.95024871826172,-2.5235788822174072 -144.93724060058594,-2.5235788822174072 C-169.9242401123047,-2.5235788822174072 -190.1802520751953,-3.3372631072998047 -190.1802520751953,-4.342620372772217 C-190.1802520751953,-5.347977638244629 -169.9242401123047,-6.162662029266357 -144.93724060058594,-6.162662029266357 C-119.95024871826172,-6.162662029266357 -99.69424438476562,-5.347977638244629 -99.69424438476562,-4.342620372772217z"/><path class="primary" fill="rgb(58,130,246)" fill-opacity="0.5" d=" M-68.97520446777344,-4.342620372772217 C-68.97520446777344,-6.029748916625977 -102.98424530029297,-7.398597717285156 -144.93724060058594,-7.398597717285156 C-186.89024353027344,-7.398597717285156 -220.90020751953125,-6.029748916625977 -220.90020751953125,-4.342620372772217 C-220.90020751953125,-2.6554923057556152 -186.89024353027344,-1.287643313407898 -144.93724060058594,-1.287643313407898 C-102.98424530029297,-1.287643313407898 -68.97520446777344,-2.6554923057556152 -68.97520446777344,-4.342620372772217z M-99.69424438476562,-4.342620372772217 C-99.69424438476562,-3.3372631072998047 -119.95024871826172,-2.5235788822174072 -144.93724060058594,-2.5235788822174072 C-169.9242401123047,-2.5235788822174072 -190.1802520751953,-3.3372631072998047 -190.1802520751953,-4.342620372772217 C-190.1802520751953,-5.347977638244629 -169.9242401123047,-6.162662029266357 -144.93724060058594,-6.162662029266357 C-119.95024871826172,-6.162662029266357 -99.69424438476562,-5.347977638244629 -99.69424438476562,-4.342620372772217z" style="mix-blend-mode: multiply;"/></g></g><g transform="matrix(1,0,0,1,215,215)" opacity="1" style="display: none;"><g opacity="1" transform="matrix(1,0,0,1,0,0)"><path stroke-linecap="butt" stroke-linejoin="miter" fill-opacity="0" stroke-miterlimit="4" class="primary" stroke="rgb(58,130,246)" stroke-opacity="1" stroke-width="2" d="M0 0"/></g><g opacity="1" transform="matrix(1,0,0,1,0,0)"><path class="primary" fill="rgb(58,130,246)" fill-opacity="1" d=" M-52.499534606933594,33.501033782958984 C-52.50309371948242,33.49915313720703 -90.61869812011719,72.0429916381836 -109.67874145507812,91.32233428955078 C-126.87594604492188,108.71574401855469 -161.25160217285156,143.4978790283203 -161.2501678466797,143.49977111816406 C-161.2501678466797,143.49977111816406 -144.2528839111328,159.99717712402344 -144.2528839111328,159.99716186523438 C-144.2543182373047,159.99525451660156 -109.5577392578125,125.3661117553711 -92.20043182373047,108.04955291748047 C-73.05011749267578,88.94391632080078 -34.75537109375,50.74665451049805 -34.75239181518555,50.748294830322266 C-34.752384185791016,50.74829864501953 -52.49952697753906,33.50103759765625 -52.499534606933594,33.501033782958984z"/><path class="primary" fill="rgb(58,130,246)" fill-opacity="0.5" d=" M-52.499534606933594,33.501033782958984 C-52.50309371948242,33.49915313720703 -90.61869812011719,72.0429916381836 -109.67874145507812,91.32233428955078 C-126.87594604492188,108.71574401855469 -161.25160217285156,143.4978790283203 -161.2501678466797,143.49977111816406 C-161.2501678466797,143.49977111816406 -144.2528839111328,159.99717712402344 -144.2528839111328,159.99716186523438 C-144.2543182373047,159.99525451660156 -109.5577392578125,125.3661117553711 -92.20043182373047,108.04955291748047 C-73.05011749267578,88.94391632080078 -34.75537109375,50.74665451049805 -34.75239181518555,50.748294830322266 C-34.752384185791016,50.74829864501953 -52.49952697753906,33.50103759765625 -52.499534606933594,33.501033782958984z" style="mix-blend-mode: multiply;"/></g></g><g transform="matrix(1,0,0,1,215,215)" opacity="1" style="display: none;"><g opacity="1" transform="matrix(1,0,0,1,0,0)"><path stroke-linecap="butt" stroke-linejoin="miter" fill-opacity="0" stroke-miterlimit="4" class="primary" stroke="rgb(58,130,246)" stroke-opacity="1" stroke-width="2" d="M0 0"/></g><g opacity="1" transform="matrix(1,0,0,1,0,0)"><path class="primary" fill="rgb(58,130,246)" fill-opacity="1" d=" M-49.60493850708008,39.9504508972168 C-71.79241180419922,28.217363357543945 -113.67958068847656,9.60839557647705 -151.74029541015625,43.50255584716797 C-195.1576690673828,82.16596221923828 -171.25384521484375,130.306396484375 -162.31292724609375,142.04847717285156 C-162.26296997070312,142.11441040039062 -162.2237548828125,142.3798828125 -162.27369689941406,142.31394958496094 C-171.22561645507812,130.44700622558594 -195.2469940185547,82.39862823486328 -151.0392608642578,42.91813278198242 C-111.21125030517578,7.348851680755615 -68.24299621582031,29.889179229736328 -49.67684555053711,40.11979293823242 C-49.62489700317383,40.147762298583984 -49.55299377441406,39.978424072265625 -49.60493850708008,39.9504508972168z"/><path class="primary" fill="rgb(58,130,246)" fill-opacity="0.5" d=" M-49.60493850708008,39.9504508972168 C-71.79241180419922,28.217363357543945 -113.67958068847656,9.60839557647705 -151.74029541015625,43.50255584716797 C-195.1576690673828,82.16596221923828 -171.25384521484375,130.306396484375 -162.31292724609375,142.04847717285156 C-162.26296997070312,142.11441040039062 -162.2237548828125,142.3798828125 -162.27369689941406,142.31394958496094 C-171.22561645507812,130.44700622558594 -195.2469940185547,82.39862823486328 -151.0392608642578,42.91813278198242 C-111.21125030517578,7.348851680755615 -68.24299621582031,29.889179229736328 -49.67684555053711,40.11979293823242 C-49.62489700317383,40.147762298583984 -49.55299377441406,39.978424072265625 -49.60493850708008,39.9504508972168z" style="mix-blend-mode: multiply;"/></g></g><g transform="matrix(1,0,0,1,215,215)" opacity="1" style="display: none;"><g opacity="1" transform="matrix(1,0,0,1,0,0)"><path stroke-linecap="butt" stroke-linejoin="miter" fill-opacity="0" stroke-miterlimit="4" class="primary" stroke="rgb(58,130,246)" stroke-opacity="1" stroke-width="2" d="M0 0"/></g><g opacity="1" transform="matrix(1,0,0,1,0,0)"><path class="primary" fill="rgb(58,130,246)" fill-opacity="1" d=" M-52.31074905395508,33.92184829711914 C-53.761512756347656,33.15475845336914 -92.12297058105469,67.97034454345703 -112.42257690429688,88.20293426513672 C-131.33018493652344,106.98397064208984 -161.74668884277344,143.04664611816406 -161.16204833984375,143.8144989013672 C-161.15878295898438,143.81878662109375 -145.0155792236328,159.60385131835938 -145.0188446044922,159.59957885742188 C-145.604248046875,158.82366943359375 -114.45472717285156,123.5082015991211 -95.34578704833984,104.74569702148438 C-74.8465576171875,84.56590270996094 -36.93988037109375,49.38617706298828 -35.72599411010742,50.05498504638672 C-35.722721099853516,50.05674743652344 -52.307220458984375,33.92361068725586 -52.31074905395508,33.92184829711914z"/><path class="primary" fill="rgb(58,130,246)" fill-opacity="0.5" d=" M-52.31074905395508,33.92184829711914 C-53.761512756347656,33.15475845336914 -92.12297058105469,67.97034454345703 -112.42257690429688,88.20293426513672 C-131.33018493652344,106.98397064208984 -161.74668884277344,143.04664611816406 -161.16204833984375,143.8144989013672 C-161.15878295898438,143.81878662109375 -145.0155792236328,159.60385131835938 -145.0188446044922,159.59957885742188 C-145.604248046875,158.82366943359375 -114.45472717285156,123.5082015991211 -95.34578704833984,104.74569702148438 C-74.8465576171875,84.56590270996094 -36.93988037109375,49.38617706298828 -35.72599411010742,50.05498504638672 C-35.722721099853516,50.05674743652344 -52.307220458984375,33.92361068725586 -52.31074905395508,33.92184829711914z" style="mix-blend-mode: multiply;"/></g></g><g transform="matrix(1,0,0,1,215,215)" opacity="1" style="display: none;"><g opacity="1" transform="matrix(1,0,0,1,0,0)"><path stroke-linecap="butt" stroke-linejoin="miter" fill-opacity="0" stroke-miterlimit="4" class="primary" stroke="rgb(58,130,246)" stroke-opacity="1" stroke-width="2" d="M0 0"/></g><g opacity="1" transform="matrix(1,0,0,1,0,0)"><path class="primary" fill="rgb(58,130,246)" fill-opacity="1" d=" M-49.60200119018555,39.957000732421875 C-71.81199645996094,28.211999893188477 -113.7030029296875,9.545001029968262 -151.7830047607422,43.454002380371094 C-195.2270050048828,82.13899993896484 -171.2639923095703,130.29299926757812 -162.31399536132812,142.0469970703125 C-162.26400756835938,142.11300659179688 -162.24200439453125,142.36199951171875 -162.2919921875,142.29600524902344 C-171.2530059814453,130.41700744628906 -195.33399963378906,82.3550033569336 -151.0989990234375,42.85200119018555 C-111.25,7.2660017013549805 -68.2770004272461,29.868000030517578 -49.69200134277344,40.10900115966797 C-49.63999938964844,40.137001037597656 -49.54999923706055,39.98500061035156 -49.60200119018555,39.957000732421875z"/><path class="primary" fill="rgb(58,130,246)" fill-opacity="0.5" d=" M-49.60200119018555,39.957000732421875 C-71.81199645996094,28.211999893188477 -113.7030029296875,9.545001029968262 -151.7830047607422,43.454002380371094 C-195.2270050048828,82.13899993896484 -171.2639923095703,130.29299926757812 -162.31399536132812,142.0469970703125 C-162.26400756835938,142.11300659179688 -162.24200439453125,142.36199951171875 -162.2919921875,142.29600524902344 C-171.2530059814453,130.41700744628906 -195.33399963378906,82.3550033569336 -151.0989990234375,42.85200119018555 C-111.25,7.2660017013549805 -68.2770004272461,29.868000030517578 -49.69200134277344,40.10900115966797 C-49.63999938964844,40.137001037597656 -49.54999923706055,39.98500061035156 -49.60200119018555,39.957000732421875z" style="mix-blend-mode: multiply;"/></g></g><g clip-path="url(#__lottie_element_4496)" transform="matrix(1,0,0,1,0,0)" opacity="1" style="display: block;"><g transform="matrix(0.7071067690849304,-0.7071067690849304,0.7071067690849304,0.7071067690849304,211.443603515625,204.69808959960938)" opacity="1" style="display: none;"><path class="primary" fill="rgb(58,130,246)" fill-opacity="1" d=" M-75.75227355957031,-5.209022045135498 C-75.75227355957031,-5.209022045135498 -75.13188934326172,0.5978286266326904 -75.21988677978516,7.147085189819336 C-75.30388641357422,13.337654113769531 -75.70728302001953,20.11785888671875 -75.70728302001953,20.11785888671875 C-75.70728302001953,20.11785888671875 -47.863006591796875,19.946971893310547 -47.863006591796875,19.946971893310547 C-40.940006256103516,19.946971893310547 -35.32700729370117,14.333971977233887 -35.32700729370117,7.4109721183776855 C-35.32700729370117,7.4109721183776855 -35.32700729370117,7.4109721183776855 -35.32700729370117,7.4109721183776855 C-35.32700729370117,7.4109721183776855 -35.37099838256836,7.509034633636475 -35.37099838256836,7.509034633636475 C-35.37099838256836,7.509034633636475 -35.37099838256836,7.509034633636475 -35.37099838256836,7.509034633636475 C-35.37099838256836,0.5860347151756287 -40.98400115966797,-5.026965141296387 -47.90700149536133,-5.026965141296387 C-47.90700149536133,-5.026965141296387 -75.75227355957031,-5.209022045135498 -75.75227355957031,-5.209022045135498z"/><g opacity="1" transform="matrix(1,0,0,1,0,0)"/></g><g transform="matrix(0.7071067690849304,-0.7071067690849304,0.7071067690849304,0.7071067690849304,211.443603515625,204.69808959960938)" opacity="1" style="display: block;"><path class="primary" fill="rgb(58,130,246)" fill-opacity="1" d=" M-83.70600128173828,-30.30699920654297 C-83.70600128173828,-30.30699920654297 -74.43399810791016,-19.19300079345703 -74.51300048828125,7.677999973297119 C-74.59700012207031,36.138999938964844 -83.70600128173828,44.20000076293945 -83.70600128173828,44.20000076293945 C-83.70600128173828,44.20000076293945 -47.90700149536133,44.736000061035156 -47.90700149536133,44.736000061035156 C-40.98400115966797,44.736000061035156 -35.37099838256836,39.12200164794922 -35.37099838256836,32.19900131225586 C-35.37099838256836,32.19900131225586 -35.37099838256836,32.19900131225586 -35.37099838256836,32.19900131225586 C-35.37099838256836,32.19900131225586 -35.37099838256836,-17.236000061035156 -35.37099838256836,-17.236000061035156 C-35.37099838256836,-17.236000061035156 -35.37099838256836,-17.236000061035156 -35.37099838256836,-17.236000061035156 C-35.37099838256836,-24.159000396728516 -40.98400115966797,-29.77199935913086 -47.90700149536133,-29.77199935913086 C-47.90700149536133,-29.77199935913086 -83.70600128173828,-30.30699920654297 -83.70600128173828,-30.30699920654297z"/><g opacity="1" transform="matrix(1,0,0,1,0,0)"/></g><g transform="matrix(0.7071067690849304,-0.7071067690849304,-0.7071067690849304,-0.7071067690849304,221.54391479492188,216.44540405273438)" opacity="1" style="display: none;"><path class="primary" fill="rgb(58,130,246)" fill-opacity="1" d=" M-76.0926513671875,-6.283088207244873 C-76.0926513671875,-6.283088207244873 -75.10202026367188,-0.24911846220493317 -75.18963623046875,7.169805526733398 C-75.27363586425781,14.313435554504395 -76.0495834350586,21.148452758789062 -76.0495834350586,21.148452758789062 C-76.0495834350586,21.148452758789062 -47.864891052246094,21.007816314697266 -47.864891052246094,21.007816314697266 C-40.941890716552734,21.007816314697266 -35.328887939453125,15.394774436950684 -35.328887939453125,8.471774101257324 C-35.328887939453125,8.471774101257324 -35.328887939453125,8.471774101257324 -35.328887939453125,8.471774101257324 C-35.328887939453125,8.471774101257324 -35.37099838256836,6.450072765350342 -35.37099838256836,6.450072765350342 C-35.37099838256836,6.450072765350342 -35.37099838256836,6.450072765350342 -35.37099838256836,6.450072765350342 C-35.37099838256836,-0.4729272425174713 -40.98400115966797,-6.0859270095825195 -47.90700149536133,-6.0859270095825195 C-47.90700149536133,-6.0859270095825195 -76.0926513671875,-6.283088207244873 -76.0926513671875,-6.283088207244873z"/><g opacity="1" transform="matrix(1,0,0,1,0,0)"/></g></g><g mask="url(#__lottie_element_4503_2)" style="mix-blend-mode: multiply; display: block;"><g clip-path="url(#__lottie_element_4500)" transform="matrix(1,0,0,1,0,0)" opacity="0.5"><g transform="matrix(0.7071067690849304,-0.7071067690849304,0.7071067690849304,0.7071067690849304,211.443603515625,204.69808959960938)" opacity="1" style="display: none;"><path class="primary" fill="rgb(58,130,246)" fill-opacity="1" d=" M-75.75227355957031,-5.209022045135498 C-75.75227355957031,-5.209022045135498 -75.13188934326172,0.5978286266326904 -75.21988677978516,7.147085189819336 C-75.30388641357422,13.337654113769531 -75.70728302001953,20.11785888671875 -75.70728302001953,20.11785888671875 C-75.70728302001953,20.11785888671875 -47.863006591796875,19.946971893310547 -47.863006591796875,19.946971893310547 C-40.940006256103516,19.946971893310547 -35.32700729370117,14.333971977233887 -35.32700729370117,7.4109721183776855 C-35.32700729370117,7.4109721183776855 -35.32700729370117,7.4109721183776855 -35.32700729370117,7.4109721183776855 C-35.32700729370117,7.4109721183776855 -35.37099838256836,7.509034633636475 -35.37099838256836,7.509034633636475 C-35.37099838256836,7.509034633636475 -35.37099838256836,7.509034633636475 -35.37099838256836,7.509034633636475 C-35.37099838256836,0.5860347151756287 -40.98400115966797,-5.026965141296387 -47.90700149536133,-5.026965141296387 C-47.90700149536133,-5.026965141296387 -75.75227355957031,-5.209022045135498 -75.75227355957031,-5.209022045135498z"/><g opacity="1" transform="matrix(1,0,0,1,0,0)"/></g><g transform="matrix(0.7071067690849304,-0.7071067690849304,0.7071067690849304,0.7071067690849304,211.443603515625,204.69808959960938)" opacity="1" style="display: block;"><path class="primary" fill="rgb(58,130,246)" fill-opacity="1" d=" M-83.70600128173828,-30.30699920654297 C-83.70600128173828,-30.30699920654297 -74.43399810791016,-19.19300079345703 -74.51300048828125,7.677999973297119 C-74.59700012207031,36.138999938964844 -83.70600128173828,44.20000076293945 -83.70600128173828,44.20000076293945 C-83.70600128173828,44.20000076293945 -47.90700149536133,44.736000061035156 -47.90700149536133,44.736000061035156 C-40.98400115966797,44.736000061035156 -35.37099838256836,39.12200164794922 -35.37099838256836,32.19900131225586 C-35.37099838256836,32.19900131225586 -35.37099838256836,32.19900131225586 -35.37099838256836,32.19900131225586 C-35.37099838256836,32.19900131225586 -35.37099838256836,-17.236000061035156 -35.37099838256836,-17.236000061035156 C-35.37099838256836,-17.236000061035156 -35.37099838256836,-17.236000061035156 -35.37099838256836,-17.236000061035156 C-35.37099838256836,-24.159000396728516 -40.98400115966797,-29.77199935913086 -47.90700149536133,-29.77199935913086 C-47.90700149536133,-29.77199935913086 -83.70600128173828,-30.30699920654297 -83.70600128173828,-30.30699920654297z"/><g opacity="1" transform="matrix(1,0,0,1,0,0)"/></g><g transform="matrix(0.7071067690849304,-0.7071067690849304,-0.7071067690849304,-0.7071067690849304,221.54391479492188,216.44540405273438)" opacity="1" style="display: none;"><path class="primary" fill="rgb(58,130,246)" fill-opacity="1" d=" M-76.0926513671875,-6.283088207244873 C-76.0926513671875,-6.283088207244873 -75.10202026367188,-0.24911846220493317 -75.18963623046875,7.169805526733398 C-75.27363586425781,14.313435554504395 -76.0495834350586,21.148452758789062 -76.0495834350586,21.148452758789062 C-76.0495834350586,21.148452758789062 -47.864891052246094,21.007816314697266 -47.864891052246094,21.007816314697266 C-40.941890716552734,21.007816314697266 -35.328887939453125,15.394774436950684 -35.328887939453125,8.471774101257324 C-35.328887939453125,8.471774101257324 -35.328887939453125,8.471774101257324 -35.328887939453125,8.471774101257324 C-35.328887939453125,8.471774101257324 -35.37099838256836,6.450072765350342 -35.37099838256836,6.450072765350342 C-35.37099838256836,6.450072765350342 -35.37099838256836,6.450072765350342 -35.37099838256836,6.450072765350342 C-35.37099838256836,-0.4729272425174713 -40.98400115966797,-6.0859270095825195 -47.90700149536133,-6.0859270095825195 C-47.90700149536133,-6.0859270095825195 -76.0926513671875,-6.283088207244873 -76.0926513671875,-6.283088207244873z"/><g opacity="1" transform="matrix(1,0,0,1,0,0)"/></g></g></g><g clip-path="url(#__lottie_element_4508)" transform="matrix(1,0,0,1,0,0)" opacity="1" style="display: block;"><g transform="matrix(0.7071067690849304,-0.7071067690849304,0.7071067690849304,0.7071067690849304,211.443603515625,204.69808959960938)" opacity="1" style="display: none;"><g opacity="1" transform="matrix(1,0,0,1,0,0)"><path class="primary" fill="rgb(58,130,246)" fill-opacity="1" d=" M-68.97400665283203,-4.856077671051025 C-68.97400665283203,-4.739373207092285 -102.98300170898438,-4.645938396453857 -144.93600463867188,-4.645938396453857 C-186.88900756835938,-4.645938396453857 -220.8990020751953,-4.739373207092285 -220.8990020751953,-4.856077671051025 C-220.8990020751953,-4.972781658172607 -186.88900756835938,-5.067216396331787 -144.93600463867188,-5.067216396331787 C-102.98300170898438,-5.067216396331787 -68.97400665283203,-4.972781658172607 -68.97400665283203,-4.856077671051025z M-99.69300842285156,-4.856077194213867 C-99.69300842285156,-4.925070285797119 -119.94900512695312,-4.982307434082031 -144.93600463867188,-4.982307434082031 C-169.92300415039062,-4.982307434082031 -190.1790008544922,-4.925070762634277 -190.1790008544922,-4.856077671051025 C-190.1790008544922,-4.787084579467773 -169.92300415039062,-4.730847358703613 -144.93600463867188,-4.730847358703613 C-119.94900512695312,-4.730847358703613 -99.69300842285156,-4.787084579467773 -99.69300842285156,-4.856077194213867z"/></g></g><g transform="matrix(0.7071067690849304,-0.7071067690849304,0.7071067690849304,0.7071067690849304,211.443603515625,204.69808959960938)" opacity="1" style="display: block;"><g opacity="1" transform="matrix(1,0,0,1,0,0)"><path class="primary" fill="rgb(58,130,246)" fill-opacity="1" d=" M-69.00199890136719,7.142000198364258 C-69.00199890136719,-34.59199905395508 -103.01200103759766,-68.42500305175781 -144.96499633789062,-68.42500305175781 C-186.91799926757812,-68.42500305175781 -220.927001953125,-34.59199905395508 -220.927001953125,7.142000198364258 C-220.927001953125,48.875999450683594 -186.91799926757812,82.70800018310547 -144.96499633789062,82.70800018310547 C-103.01200103759766,82.70800018310547 -69.00199890136719,48.875999450683594 -69.00199890136719,7.142000198364258z M-99.72200012207031,7.142000198364258 C-99.72200012207031,31.999000549316406 -119.97799682617188,52.14799880981445 -144.96499633789062,52.14799880981445 C-169.95199584960938,52.14799880981445 -190.20799255371094,31.999000549316406 -190.20799255371094,7.142000198364258 C-190.20799255371094,-17.71500015258789 -169.95199584960938,-37.8650016784668 -144.96499633789062,-37.8650016784668 C-119.97799682617188,-37.8650016784668 -99.72200012207031,-17.71500015258789 -99.72200012207031,7.142000198364258z"/></g></g><g transform="matrix(0.7071067690849304,-0.7071067690849304,-0.7071067690849304,-0.7071067690849304,221.54391479492188,216.44540405273438)" opacity="1" style="display: none;"><g opacity="1" transform="matrix(1,0,0,1,0,0)"><path class="primary" fill="rgb(58,130,246)" fill-opacity="1" d=" M-68.8785400390625,19.58367156982422 C-68.8785400390625,17.896543502807617 -102.88758087158203,16.527694702148438 -144.840576171875,16.527694702148438 C-186.7935791015625,16.527694702148438 -220.8035430908203,17.896543502807617 -220.8035430908203,19.58367156982422 C-220.8035430908203,21.27079963684082 -186.7935791015625,22.638648986816406 -144.840576171875,22.638648986816406 C-102.88758087158203,22.638648986816406 -68.8785400390625,21.27079963684082 -68.8785400390625,19.58367156982422z M-99.59757995605469,19.58367156982422 C-99.59757995605469,20.58902931213379 -119.85358428955078,21.402713775634766 -144.840576171875,21.402713775634766 C-169.82757568359375,21.402713775634766 -190.08453369140625,20.58902931213379 -190.08453369140625,19.58367156982422 C-190.08453369140625,18.57831573486328 -169.82757568359375,17.763629913330078 -144.840576171875,17.763629913330078 C-119.85358428955078,17.763629913330078 -99.59757995605469,18.57831573486328 -99.59757995605469,19.58367156982422z"/></g></g></g><g mask="url(#__lottie_element_4515_2)" style="mix-blend-mode: multiply; display: block;"><g clip-path="url(#__lottie_element_4512)" transform="matrix(1,0,0,1,0,0)" opacity="0.5"><g transform="matrix(0.7071067690849304,-0.7071067690849304,0.7071067690849304,0.7071067690849304,211.443603515625,204.69808959960938)" opacity="1" style="display: none;"><g opacity="1" transform="matrix(1,0,0,1,0,0)"><path class="primary" fill="rgb(58,130,246)" fill-opacity="1" d=" M-68.97400665283203,-4.856077671051025 C-68.97400665283203,-4.739373207092285 -102.98300170898438,-4.645938396453857 -144.93600463867188,-4.645938396453857 C-186.88900756835938,-4.645938396453857 -220.8990020751953,-4.739373207092285 -220.8990020751953,-4.856077671051025 C-220.8990020751953,-4.972781658172607 -186.88900756835938,-5.067216396331787 -144.93600463867188,-5.067216396331787 C-102.98300170898438,-5.067216396331787 -68.97400665283203,-4.972781658172607 -68.97400665283203,-4.856077671051025z M-99.69300842285156,-4.856077194213867 C-99.69300842285156,-4.925070285797119 -119.94900512695312,-4.982307434082031 -144.93600463867188,-4.982307434082031 C-169.92300415039062,-4.982307434082031 -190.1790008544922,-4.925070762634277 -190.1790008544922,-4.856077671051025 C-190.1790008544922,-4.787084579467773 -169.92300415039062,-4.730847358703613 -144.93600463867188,-4.730847358703613 C-119.94900512695312,-4.730847358703613 -99.69300842285156,-4.787084579467773 -99.69300842285156,-4.856077194213867z"/></g></g><g transform="matrix(0.7071067690849304,-0.7071067690849304,0.7071067690849304,0.7071067690849304,211.443603515625,204.69808959960938)" opacity="1" style="display: block;"><g opacity="1" transform="matrix(1,0,0,1,0,0)"><path class="primary" fill="rgb(58,130,246)" fill-opacity="1" d=" M-69.00199890136719,7.142000198364258 C-69.00199890136719,-34.59199905395508 -103.01200103759766,-68.42500305175781 -144.96499633789062,-68.42500305175781 C-186.91799926757812,-68.42500305175781 -220.927001953125,-34.59199905395508 -220.927001953125,7.142000198364258 C-220.927001953125,48.875999450683594 -186.91799926757812,82.70800018310547 -144.96499633789062,82.70800018310547 C-103.01200103759766,82.70800018310547 -69.00199890136719,48.875999450683594 -69.00199890136719,7.142000198364258z M-99.72200012207031,7.142000198364258 C-99.72200012207031,31.999000549316406 -119.97799682617188,52.14799880981445 -144.96499633789062,52.14799880981445 C-169.95199584960938,52.14799880981445 -190.20799255371094,31.999000549316406 -190.20799255371094,7.142000198364258 C-190.20799255371094,-17.71500015258789 -169.95199584960938,-37.8650016784668 -144.96499633789062,-37.8650016784668 C-119.97799682617188,-37.8650016784668 -99.72200012207031,-17.71500015258789 -99.72200012207031,7.142000198364258z"/></g></g><g transform="matrix(0.7071067690849304,-0.7071067690849304,-0.7071067690849304,-0.7071067690849304,221.54391479492188,216.44540405273438)" opacity="1" style="display: none;"><g opacity="1" transform="matrix(1,0,0,1,0,0)"><path class="primary" fill="rgb(58,130,246)" fill-opacity="1" d=" M-68.8785400390625,19.58367156982422 C-68.8785400390625,17.896543502807617 -102.88758087158203,16.527694702148438 -144.840576171875,16.527694702148438 C-186.7935791015625,16.527694702148438 -220.8035430908203,17.896543502807617 -220.8035430908203,19.58367156982422 C-220.8035430908203,21.27079963684082 -186.7935791015625,22.638648986816406 -144.840576171875,22.638648986816406 C-102.88758087158203,22.638648986816406 -68.8785400390625,21.27079963684082 -68.8785400390625,19.58367156982422z M-99.59757995605469,19.58367156982422 C-99.59757995605469,20.58902931213379 -119.85358428955078,21.402713775634766 -144.840576171875,21.402713775634766 C-169.82757568359375,21.402713775634766 -190.08453369140625,20.58902931213379 -190.08453369140625,19.58367156982422 C-190.08453369140625,18.57831573486328 -169.82757568359375,17.763629913330078 -144.840576171875,17.763629913330078 C-119.85358428955078,17.763629913330078 -99.59757995605469,18.57831573486328 -99.59757995605469,19.58367156982422z"/></g></g></g></g><g transform="matrix(1,0,0,1,215,215)" opacity="1" style="display: none;"><g opacity="1" transform="matrix(1,0,0,1,0,0)"><path stroke-linecap="butt" stroke-linejoin="miter" fill-opacity="0" stroke-miterlimit="4" class="primary" stroke="rgb(58,130,246)" stroke-opacity="1" stroke-width="2" d="M0 0"/></g><g opacity="1" transform="matrix(1,0,0,1,0,0)"><path class="primary" fill="rgb(58,130,246)" fill-opacity="1" d=" M-48,40.75 C-29.5,57.75 -6.30800199508667,115.55599975585938 -50.53900146484375,154.94200134277344 C-101,199.875 -153.375,156 -161.25,143.5 C-161.29400634765625,143.4290008544922 -161.29400634765625,143.1790008544922 -161.25,143.25 C-153.375,155.875 -101.125,200.125 -49.74500274658203,154.24200439453125 C-3.4590015411376953,112.90799713134766 -32.5,55.25 -47.875,40.625 C-47.917999267578125,40.58399963378906 -48.04399871826172,40.709999084472656 -48,40.75z"/></g></g><g transform="matrix(1,0,0,1,215,215)" opacity="1" style="display: none;"><g opacity="1" transform="matrix(1,0,0,1,0,0)"><path stroke-linecap="butt" stroke-linejoin="miter" fill-opacity="0" stroke-miterlimit="4" class="primary" stroke="rgb(58,130,246)" stroke-opacity="1" stroke-width="2" d="M0 0"/></g><g opacity="1" transform="matrix(1,0,0,1,0,0)"><path class="primary" fill="rgb(58,130,246)" fill-opacity="1" d=" M-48.00252151489258,40.745933532714844 C-29.512893676757812,57.73640441894531 -6.352640628814697,115.53467559814453 -50.56953048706055,154.90940856933594 C-101.01187896728516,199.82696533203125 -153.37940979003906,155.9929962158203 -161.25,143.5 C-161.29397583007812,143.42904663085938 -161.28334045410156,143.18991088867188 -161.23936462402344,143.2608642578125 C-153.3687744140625,155.87879943847656 -101.14170837402344,200.10244750976562 -49.76617431640625,154.21917724609375 C-3.4858145713806152,112.88967895507812 -32.50126266479492,55.24747848510742 -47.86764144897461,40.63067626953125 C-47.91061782836914,40.589698791503906 -48.0464973449707,40.70595932006836 -48.00252151489258,40.745933532714844z"/></g></g></g></g></svg>